PathFileType	4	(X/Y/Z)	E:\Qualisys_Data\Carbon_Farble_Plate\Data\Amateur_Runner\S14\T1\S14T1V14_c3d.trc
DataRate	CameraRate	NumFrames	NumMarkers	Units	OrigDataRate	OrigDataStartFrame	OrigNumFrames
200.000000	200.000000	5	39	mm	200.000000	215	344
Frame#	Time	LSHO			RSHO			LICST			RICST			LASIS			LHEEL			RASIS			LTROC			RTROC			SACR			LTH1			LSK4			LTH2			LTH3			RHM5			LSK2			LTH4			RTH1			LTOE			RTH2			RTH3			RTH4			LLEP			RLEP			LSK1			LSK3			RSK1			LHM5			RSK2			LFT1			RSK3			RSK4			LLME			RLME			RTOE			RHEEL			RFT1			RFT2			LFT2			
		X1	Y1	Z1	X2	Y2	Z2	X3	Y3	Z3	X4	Y4	Z4	X5	Y5	Z5	X6	Y6	Z6	X7	Y7	Z7	X8	Y8	Z8	X9	Y9	Z9	X10	Y10	Z10	X11	Y11	Z11	X12	Y12	Z12	X13	Y13	Z13	X14	Y14	Z14	X15	Y15	Z15	X16	Y16	Z16	X17	Y17	Z17	X18	Y18	Z18	X19	Y19	Z19	X20	Y20	Z20	X21	Y21	Z21	X22	Y22	Z22	X23	Y23	Z23	X24	Y24	Z24	X25	Y25	Z25	X26	Y26	Z26	X27	Y27	Z27	X28	Y28	Z28	X29	Y29	Z29	X30	Y30	Z30	X31	Y31	Z31	X32	Y32	Z32	X33	Y33	Z33	X34	Y34	Z34	X35	Y35	Z35	X36	Y36	Z36	X37	Y37	Z37	X38	Y38	Z38	X39	Y39	Z39	

216	1.075	657.5698852539062	1415.535400390625	-461.7858581542969	750.516357421875	1403.986938476562	-174.1137390136719	629.695556640625	966.0912475585938	-437.6503601074219	679.6531982421875	971.139404296875	-164.0265045166016	674.0138549804688	917.6180419921876	-414.8232727050781	439.4340209960938	289.2393798828125	-314.0727844238281	702.8895263671875	928.8639526367188	-184.1891632080078	540.325927734375	842.2425537109375	-445.9078674316406	557.9104614257812	880.5441284179688	-125.4659118652344	516.3253173828125	976.3223266601562	-290.9581909179688	727.65576171875	663.0010986328125	-466.4547424316406	596.7913818359375	409.8163452148438	-407.1828308105469	663.5978393554688	625.0493774414062	-440.6035461425781	785.6215209960938	582.8078002929688	-448.4903259277344	434.448486328125	60.41019821166992	-148.9263305664062	670.0073852539062	473.4142456054688	-431.114013671875	717.5076904296875	544.5654296875	-425.9352111816406	672.0106811523438	629.7561645507812	-135.6323699951172	609.03662109375	96.12569427490234	-353.5721740722656	596.0339965820312	640.84716796875	-123.7754745483398	659.43359375	533.44970703125	-166.8805084228516	578.3069458007812	541.4783935546875	-144.3420867919922	777.7453002929688	509.8271484375	-439.0840454101562	586.6296997070312	467.692626953125	-155.6343688964844	725.5947265625	411.9781188964844	-430.1753845214844	649.3801879882812	347.3476257324219	-406.0798645019531	547.8501586914062	347.7487182617188	-154.1266784667969	546.7066650390625	135.0361785888672	-407.7805786132812	475.960693359375	394.0800170898438	-144.4313659667969	434.8294677734375	262.4878234863281	-284.6004943847656	483.9865417480469	266.6604614257812	-167.4732208251953	422.0854187011719	315.5496215820312	-157.1357421875	496.337158203125	268.2586059570312	-376.552490234375	342.8253479003906	157.0027160644531	-178.5492095947266	503.3409423828125	48.58880615234375	-213.1930084228516	274.8013610839844	149.8441772460938	-230.946533203125	277.9573364257812	117.7375793457031	-260.7257080078125	268.0766296386719	128.6565551757812	-204.0984802246094	419.9834594726562	268.7833862304688	-337.7587585449219
217	1.08	670.4332885742188	1419.339233398438	-462.6264953613281	765.9993896484375	1408.3583984375	-176.0735626220703	644.3909912109375	970.7843627929688	-438.3297119140625	696.4183349609375	974.3549194335938	-165.1459197998047	688.8505859375	922.4959106445312	-415.39013671875	466.2728271484375	278.8394470214844	-313.7249145507812	719.1668701171875	931.9458618164062	-185.2272491455078	555.9915771484375	847.377197265625	-447.296875	573.5845947265625	884.419677734375	-125.6296539306641	532.5660400390625	980.1473999023438	-291.2278442382812	745.0433349609375	668.5446166992188	-466.7182312011719	618.9031982421875	406.2126159667969	-406.6441955566406	681.0794677734375	630.1207275390625	-442.2161254882812	803.22900390625	588.2379150390625	-447.8169860839844	435.921875	61.01620864868164	-148.1798400878906	688.2955932617188	473.4549255371094	-431.0357666015625	735.5048828125	549.83984375	-426.9118347167969	683.436279296875	632.4647216796875	-137.0651702880859	643.7610473632812	93.593017578125	-355.3319091796875	607.8866577148438	645.1690063476562	-123.8703765869141	668.8283081054688	536.4677124023438	-167.4580078125	588.1470947265625	545.896240234375	-144.7477722167969	795.5838012695312	514.9786987304688	-438.9933776855469	594.564453125	471.4599609375	-155.9440002441406	746.59375	414.5950622558594	-430.4197692871094	673.40771484375	346.62890625	-406.3915100097656	553.7604370117188	352.0682678222656	-153.4941558837891	579.5787353515625	130.2864227294922	-408.8341064453125	482.8800048828125	398.94482421875	-144.1421356201172	463.2420959472656	251.8397216796875	-284.7870178222656	489.3168029785156	271.6156616210938	-166.6655578613281	428.0928344726562	320.5897216796875	-156.6732940673828	523.1150512695312	260.5192565917969	-376.6105346679688	348.1172180175781	162.3351898193359	-177.6367645263672	504.5455322265625	48.5031852722168	-212.7433471679688	280.1700439453125	156.9494171142578	-230.0385894775391	283.0150451660156	125.1931686401367	-259.3012390136719	272.9175720214844	135.7551574707031	-203.1293029785156	446.57763671875	258.1872863769531	-338.3345947265625
218	1.085	683.86474609375	1423.28955078125	-463.3277587890625	782.1615600585938	1412.792846679688	-178.1530456542969	659.9976196289062	975.6224365234376	-439.15478515625	712.7444458007812	977.2662963867188	-165.9836730957031	704.5758666992188	927.0352783203124	-416.4327392578125	493.4104919433594	268.3875427246094	-313.290771484375	735.4050903320312	935.12255859375	-186.2386016845703	571.9241333007812	852.36181640625	-448.4067077636719	589.5288696289062	888.39501953125	-125.7339096069336	548.493408203125	983.7723999023438	-290.8701477050781	762.487060546875	673.1674194335938	-466.27490234375	640.2372436523438	403.158447265625	-407.1054382324219	698.291748046875	634.626953125	-443.4044494628906	820.9353637695312	593.6238403320312	-447.759033203125	437.6482543945312	61.88508605957031	-147.631103515625	706.833740234375	472.6262512207031	-431.3174438476562	753.1298828125	554.7184448242188	-428.3016357421875	694.7076416015625	635.3209228515625	-137.5348205566406	678.2554931640625	91.8034896850586	-357.2137756347656	619.6176147460938	649.1705932617188	-124.1928482055664	678.16650390625	539.204833984375	-168.1861572265625	597.7696533203125	550.2518920898438	-144.2139434814453	813.2045288085938	518.923828125	-439.0342407226562	602.8291015625	475.6510925292969	-155.3027648925781	767.2013549804688	416.6323547363281	-430.4191589355469	697.414794921875	345.5041198730469	-407.9319458007812	560.4285888671875	356.7154235839844	-152.5939178466797	612.294189453125	125.6884841918945	-410.2715148925781	489.6044006347656	404.0805053710938	-143.5807189941406	490.2220764160156	241.0774688720703	-285.4851989746094	495.5554504394531	275.9645385742188	-165.8515625	433.9755554199219	326.0364685058594	-156.0867004394531	550.776123046875	253.5882873535156	-377.253662109375	353.74658203125	167.241943359375	-176.7930145263672	506.266357421875	48.64886856079102	-211.8592681884766	286.1664123535156	163.6537475585938	-229.2146911621094	288.0621643066406	132.1387176513672	-258.3991394042969	278.0803833007812	142.8301239013672	-202.3627319335938	475.0602416992188	246.8599395751953	-338.1062316894531
219	1.09	697.0867309570312	1427.119873046875	-464.0001525878906	797.701171875	1417.082885742188	-179.9345092773438	674.6062622070312	980.0158081054688	-439.7244262695312	729.8937377929688	980.513671875	-166.8571319580078	719.7156372070312	931.7605590820312	-417.3234252929688	520.802001953125	258.1987915039062	-313.1320495605469	751.8438110351562	937.8724975585938	-187.4294586181641	587.74609375	857.0750732421875	-449.829345703125	605.5465087890625	891.9539794921875	-125.9809265136719	564.4528198242188	987.6060791015624	-290.609619140625	779.685302734375	677.9400024414062	-466.56396484375	661.3605346679688	399.2920227050781	-407.1631164550781	715.4536743164062	638.68359375	-444.4820861816406	837.87744140625	598.020751953125	-447.4630737304688	440.5619201660156	63.01702117919922	-146.344482421875	724.8434448242188	471.9422912597656	-431.08447265625	769.929931640625	558.9379272460938	-429.0822143554688	706.375732421875	637.8985595703125	-138.7286987304688	712.8807373046875	89.88362884521484	-358.8146057128906	631.2711791992188	652.7010498046875	-124.4371337890625	687.9478759765625	541.9850463867188	-168.8293762207031	607.8914794921875	554.41748046875	-144.3647766113281	830.4568481445312	522.5731201171875	-438.8835144042969	611.2046508789062	479.5883178710938	-155.5371398925781	787.5839233398438	418.5709228515625	-430.8360900878906	721.18359375	344.5709533691406	-407.74072265625	567.3057861328125	360.9201354980469	-152.2481842041016	645.0184936523438	121.2789154052734	-411.6524353027344	496.6548767089844	408.9332885742188	-143.3551025390625	518.0940551757812	230.7274475097656	-286.2398986816406	501.7619323730469	280.9286499023438	-164.8082427978516	440.9060363769531	331.3875122070312	-155.34716796875	578.06396484375	245.7510833740234	-377.4327392578125	359.9174194335938	172.2802886962891	-176.0068511962891	507.4922485351562	47.6656379699707	-210.8727264404297	292.3920288085938	170.7234802246094	-228.7040863037109	293.6747436523438	140.0497131347656	-257.3149108886719	284.2564086914062	150.0157928466797	-201.5429840087891	502.6582641601562	235.9722290039062	-338.0247192382812
220	1.095	710.3421630859375	1430.681518554688	-464.5841979980469	813.1591186523438	1421.523315429688	-181.8871612548828	690.1598510742188	984.861328125	-440.4699401855469	746.6580200195312	983.5786743164062	-167.9020385742188	735.4625244140625	936.226806640625	-418.2212524414062	548.8087768554688	247.9443206787109	-313.2033996582031	768.322265625	940.7242431640624	-188.9075622558594	603.5357666015625	861.48681640625	-450.8138122558594	621.5289916992188	895.886474609375	-126.4687652587891	580.8794555664062	991.0155029296876	-290.8532104492188	796.6295166015625	682.3795166015625	-466.5028076171875	682.65185546875	395.7625122070312	-407.4577941894531	732.3753662109375	642.804931640625	-445.5306701660156	854.8234252929688	602.6962890625	-447.2209167480469	443.2176818847656	64.44080352783203	-145.4707489013672	742.85546875	470.9470825195312	-431.1959533691406	786.9442749023438	563.159423828125	-430.2736511230469	717.8477172851562	640.5440673828125	-139.4267730712891	747.4442138671875	88.3855972290039	-360.4685974121094	643.1847534179688	656.9160766601562	-124.8333969116211	697.7033081054688	544.915771484375	-169.1809692382812	617.965576171875	558.6961669921875	-143.8349914550781	846.4927368164062	527.3291625976562	-439.0238342285156	619.7056274414062	483.8399963378906	-155.08984375	808.0830078125	420.41015625	-431.2676696777344	744.70556640625	343.3095397949219	-408.1989440917969	574.3910522460938	365.7900390625	-151.3751068115234	678.2435913085938	116.6669311523438	-413.0209655761719	504.2054443359375	414.0818176269531	-142.9973449707031	548.0868530273438	220.3927764892578	-286.0946044921875	508.6901550292969	285.5604553222656	-163.6763305664062	448.0313415527344	336.5315246582031	-154.7450561523438	606.2183837890625	238.3841552734375	-377.98193359375	366.4534301757812	177.3324584960938	-175.0508117675781	509.1256713867188	47.41591262817383	-210.1815490722656	299.3544006347656	178.4912414550781	-227.9628753662109	299.8091430664062	147.3060302734375	-256.5923461914062	290.9892578125	157.4097900390625	-200.8560180664062	531.5613403320312	225.1678161621094	-338.3493957519531
